<?xml version="1.0" encoding="utf-8"?>
<!-- Generator: Adobe Illustrator 25.0.0, SVG Export Plug-In . SVG Version: 6.00 Build 0)  -->
<svg version="1.1" id="Capa_1" xmlns="http://www.w3.org/2000/svg" xmlns:xlink="http://www.w3.org/1999/xlink" x="0px" y="0px"
	 viewBox="0 0 16 16" style="enable-background:new 0 0 16 16;" xml:space="preserve">
<style type="text/css">
	.st0{fill-rule:evenodd;clip-rule:evenodd;}
</style>
<path class="st0" d="M2.5,4c0-0.5,0.2-0.8,0.5-0.8h10c0.3,0,0.5,0.3,0.5,0.8c0,0.5-0.2,0.8-0.5,0.8H3C2.7,4.8,2.5,4.5,2.5,4z M2.5,8
	c0-0.5,0.2-0.8,0.5-0.8h10c0.3,0,0.5,0.3,0.5,0.8S13.3,8.8,13,8.8H3C2.7,8.8,2.5,8.5,2.5,8z M2.5,12c0-0.5,0.2-0.8,0.5-0.8h10
	c0.3,0,0.5,0.3,0.5,0.8c0,0.5-0.2,0.8-0.5,0.8H3C2.7,12.8,2.5,12.5,2.5,12z"/>
<g>
	<path d="M13.8,15.1H2.2c-0.8,0-1.5-0.7-1.5-1.5V2.4c0-0.8,0.7-1.5,1.5-1.5h11.6c0.8,0,1.5,0.7,1.5,1.5v11.2
		C15.3,14.4,14.6,15.1,13.8,15.1z M2.2,1.9c-0.3,0-0.5,0.2-0.5,0.5v11.2c0,0.3,0.2,0.5,0.5,0.5h11.6c0.3,0,0.5-0.2,0.5-0.5V2.4
		c0-0.3-0.2-0.5-0.5-0.5C13.8,1.9,2.2,1.9,2.2,1.9z"/>
</g>
</svg>
